<mxfile host="app.diagrams.net" agent="Mozilla/5.0 (Windows NT 10.0; Win64; x64) AppleWebKit/537.36 (KHTML, like Gecko) Chrome/133.0.0.0 Safari/537.36 OPR/118.0.0.0" version="27.0.6">
  <diagram name="Pagina-1" id="COeQRHTQGuJaWE0zaVjj">
    <mxGraphModel dx="3723" dy="756" grid="1" gridSize="10" guides="1" tooltips="1" connect="1" arrows="1" fold="1" page="1" pageScale="1" pageWidth="1169" pageHeight="1654" math="0" shadow="0">
      <root>
        <mxCell id="0" />
        <mxCell id="1" parent="0" />
        <mxCell id="VPmdxkoRCYv9EaFTGyUe-1" value="&lt;font style=&quot;font-size: 18px;&quot;&gt;Artefatto&lt;/font&gt;" style="whiteSpace=wrap;html=1;align=center;" parent="1" vertex="1">
          <mxGeometry x="-1005" y="90" width="110" height="50" as="geometry" />
        </mxCell>
        <mxCell id="VPmdxkoRCYv9EaFTGyUe-9" value="" style="endArrow=none;html=1;rounded=0;entryX=0.5;entryY=1;entryDx=0;entryDy=0;entryPerimeter=0;" parent="1" source="VPmdxkoRCYv9EaFTGyUe-26" edge="1">
          <mxGeometry width="50" height="50" relative="1" as="geometry">
            <mxPoint x="-1002.5" y="90" as="sourcePoint" />
            <mxPoint x="-1002.5" y="70" as="targetPoint" />
          </mxGeometry>
        </mxCell>
        <mxCell id="VPmdxkoRCYv9EaFTGyUe-10" value="&lt;font style=&quot;font-size: 18px;&quot;&gt;Cod&lt;/font&gt;" style="text;html=1;align=center;verticalAlign=middle;whiteSpace=wrap;rounded=0;" parent="1" vertex="1">
          <mxGeometry x="-1035" y="40" width="45" height="10" as="geometry" />
        </mxCell>
        <mxCell id="VPmdxkoRCYv9EaFTGyUe-11" value="" style="verticalLabelPosition=bottom;verticalAlign=top;html=1;shape=mxgraph.flowchart.on-page_reference;" parent="1" vertex="1">
          <mxGeometry x="-980" y="60" width="10" height="10" as="geometry" />
        </mxCell>
        <mxCell id="VPmdxkoRCYv9EaFTGyUe-12" value="" style="endArrow=none;html=1;rounded=0;entryX=0.5;entryY=1;entryDx=0;entryDy=0;entryPerimeter=0;" parent="1" target="VPmdxkoRCYv9EaFTGyUe-11" edge="1">
          <mxGeometry width="50" height="50" relative="1" as="geometry">
            <mxPoint x="-975" y="90" as="sourcePoint" />
            <mxPoint x="-930" y="70" as="targetPoint" />
          </mxGeometry>
        </mxCell>
        <mxCell id="VPmdxkoRCYv9EaFTGyUe-13" value="&lt;font style=&quot;font-size: 18px;&quot;&gt;Nome&lt;/font&gt;" style="text;html=1;align=center;verticalAlign=middle;whiteSpace=wrap;rounded=0;" parent="1" vertex="1">
          <mxGeometry x="-980" y="40" width="45" height="10" as="geometry" />
        </mxCell>
        <mxCell id="VPmdxkoRCYv9EaFTGyUe-14" value="" style="verticalLabelPosition=bottom;verticalAlign=top;html=1;shape=mxgraph.flowchart.on-page_reference;" parent="1" vertex="1">
          <mxGeometry x="-925" y="60" width="10" height="10" as="geometry" />
        </mxCell>
        <mxCell id="VPmdxkoRCYv9EaFTGyUe-15" value="" style="endArrow=none;html=1;rounded=0;entryX=0.5;entryY=1;entryDx=0;entryDy=0;entryPerimeter=0;" parent="1" target="VPmdxkoRCYv9EaFTGyUe-14" edge="1">
          <mxGeometry width="50" height="50" relative="1" as="geometry">
            <mxPoint x="-920" y="90" as="sourcePoint" />
            <mxPoint x="-875" y="70" as="targetPoint" />
          </mxGeometry>
        </mxCell>
        <mxCell id="VPmdxkoRCYv9EaFTGyUe-16" value="&lt;font style=&quot;font-size: 18px;&quot;&gt;Anno&lt;/font&gt;" style="text;html=1;align=center;verticalAlign=middle;whiteSpace=wrap;rounded=0;" parent="1" vertex="1">
          <mxGeometry x="-925" y="40" width="45" height="10" as="geometry" />
        </mxCell>
        <mxCell id="VPmdxkoRCYv9EaFTGyUe-28" value="" style="endArrow=none;html=1;rounded=0;entryX=0.5;entryY=1;entryDx=0;entryDy=0;entryPerimeter=0;" parent="1" target="VPmdxkoRCYv9EaFTGyUe-26" edge="1">
          <mxGeometry width="50" height="50" relative="1" as="geometry">
            <mxPoint x="-1002.5" y="90" as="sourcePoint" />
            <mxPoint x="-1002.5" y="70" as="targetPoint" />
          </mxGeometry>
        </mxCell>
        <mxCell id="VPmdxkoRCYv9EaFTGyUe-26" value="" style="verticalLabelPosition=bottom;verticalAlign=top;html=1;shape=mxgraph.flowchart.on-page_reference;fillColor=#000000;" parent="1" vertex="1">
          <mxGeometry x="-1007.5" y="60" width="10" height="10" as="geometry" />
        </mxCell>
        <mxCell id="VPmdxkoRCYv9EaFTGyUe-29" value="&lt;font style=&quot;font-size: 18px;&quot;&gt;Artista&lt;/font&gt;" style="whiteSpace=wrap;html=1;align=center;" parent="1" vertex="1">
          <mxGeometry x="-595" y="90" width="110" height="50" as="geometry" />
        </mxCell>
        <mxCell id="VPmdxkoRCYv9EaFTGyUe-30" value="" style="endArrow=none;html=1;rounded=0;entryX=0.5;entryY=1;entryDx=0;entryDy=0;entryPerimeter=0;" parent="1" source="VPmdxkoRCYv9EaFTGyUe-39" edge="1">
          <mxGeometry width="50" height="50" relative="1" as="geometry">
            <mxPoint x="-592.5" y="90" as="sourcePoint" />
            <mxPoint x="-592.5" y="70" as="targetPoint" />
          </mxGeometry>
        </mxCell>
        <mxCell id="VPmdxkoRCYv9EaFTGyUe-31" value="&lt;font style=&quot;font-size: 18px;&quot;&gt;Nome&lt;/font&gt;" style="text;html=1;align=center;verticalAlign=middle;whiteSpace=wrap;rounded=0;" parent="1" vertex="1">
          <mxGeometry x="-615" y="40" width="45" height="10" as="geometry" />
        </mxCell>
        <mxCell id="VPmdxkoRCYv9EaFTGyUe-32" value="" style="verticalLabelPosition=bottom;verticalAlign=top;html=1;shape=mxgraph.flowchart.on-page_reference;" parent="1" vertex="1">
          <mxGeometry x="-555" y="60" width="10" height="10" as="geometry" />
        </mxCell>
        <mxCell id="VPmdxkoRCYv9EaFTGyUe-33" value="" style="endArrow=none;html=1;rounded=0;entryX=0.5;entryY=1;entryDx=0;entryDy=0;entryPerimeter=0;" parent="1" target="VPmdxkoRCYv9EaFTGyUe-32" edge="1">
          <mxGeometry width="50" height="50" relative="1" as="geometry">
            <mxPoint x="-550" y="90" as="sourcePoint" />
            <mxPoint x="-505" y="70" as="targetPoint" />
          </mxGeometry>
        </mxCell>
        <mxCell id="VPmdxkoRCYv9EaFTGyUe-34" value="&lt;font style=&quot;font-size: 18px;&quot;&gt;Cogn&lt;/font&gt;" style="text;html=1;align=center;verticalAlign=middle;whiteSpace=wrap;rounded=0;" parent="1" vertex="1">
          <mxGeometry x="-562.5" y="40" width="45" height="10" as="geometry" />
        </mxCell>
        <mxCell id="VPmdxkoRCYv9EaFTGyUe-35" value="" style="verticalLabelPosition=bottom;verticalAlign=top;html=1;shape=mxgraph.flowchart.on-page_reference;" parent="1" vertex="1">
          <mxGeometry x="-500" y="60" width="10" height="10" as="geometry" />
        </mxCell>
        <mxCell id="VPmdxkoRCYv9EaFTGyUe-36" value="" style="endArrow=none;html=1;rounded=0;entryX=0.5;entryY=1;entryDx=0;entryDy=0;entryPerimeter=0;" parent="1" target="VPmdxkoRCYv9EaFTGyUe-35" edge="1">
          <mxGeometry width="50" height="50" relative="1" as="geometry">
            <mxPoint x="-495" y="90" as="sourcePoint" />
            <mxPoint x="-450" y="70" as="targetPoint" />
          </mxGeometry>
        </mxCell>
        <mxCell id="VPmdxkoRCYv9EaFTGyUe-37" value="&lt;font style=&quot;font-size: 18px;&quot;&gt;DN&lt;/font&gt;" style="text;html=1;align=center;verticalAlign=middle;whiteSpace=wrap;rounded=0;" parent="1" vertex="1">
          <mxGeometry x="-517.5" y="40" width="45" height="10" as="geometry" />
        </mxCell>
        <mxCell id="VPmdxkoRCYv9EaFTGyUe-38" value="" style="endArrow=none;html=1;rounded=0;entryX=0.5;entryY=1;entryDx=0;entryDy=0;entryPerimeter=0;" parent="1" target="VPmdxkoRCYv9EaFTGyUe-39" edge="1">
          <mxGeometry width="50" height="50" relative="1" as="geometry">
            <mxPoint x="-592.5" y="90" as="sourcePoint" />
            <mxPoint x="-592.5" y="70" as="targetPoint" />
          </mxGeometry>
        </mxCell>
        <mxCell id="VPmdxkoRCYv9EaFTGyUe-39" value="" style="verticalLabelPosition=bottom;verticalAlign=top;html=1;shape=mxgraph.flowchart.on-page_reference;fillColor=#FFFFFF;" parent="1" vertex="1">
          <mxGeometry x="-597.5" y="60" width="10" height="10" as="geometry" />
        </mxCell>
        <mxCell id="VPmdxkoRCYv9EaFTGyUe-52" value="" style="endArrow=none;html=1;rounded=0;exitX=1;exitY=0.5;exitDx=0;exitDy=0;" parent="1" source="VPmdxkoRCYv9EaFTGyUe-51" edge="1">
          <mxGeometry width="50" height="50" relative="1" as="geometry">
            <mxPoint x="-432.5" y="120" as="sourcePoint" />
            <mxPoint x="-455" y="115" as="targetPoint" />
          </mxGeometry>
        </mxCell>
        <mxCell id="VPmdxkoRCYv9EaFTGyUe-53" value="&lt;font style=&quot;font-size: 18px;&quot;&gt;DM&lt;/font&gt;" style="text;html=1;align=center;verticalAlign=middle;whiteSpace=wrap;rounded=0;" parent="1" vertex="1">
          <mxGeometry x="-445" y="110" width="40" height="10" as="geometry" />
        </mxCell>
        <mxCell id="VPmdxkoRCYv9EaFTGyUe-54" value="" style="endArrow=none;html=1;rounded=0;exitX=1;exitY=0.5;exitDx=0;exitDy=0;" parent="1" source="VPmdxkoRCYv9EaFTGyUe-29" target="VPmdxkoRCYv9EaFTGyUe-51" edge="1">
          <mxGeometry width="50" height="50" relative="1" as="geometry">
            <mxPoint x="-485" y="115" as="sourcePoint" />
            <mxPoint x="-455" y="115" as="targetPoint" />
          </mxGeometry>
        </mxCell>
        <mxCell id="VPmdxkoRCYv9EaFTGyUe-51" value="" style="verticalLabelPosition=bottom;verticalAlign=top;html=1;shape=mxgraph.flowchart.on-page_reference;" parent="1" vertex="1">
          <mxGeometry x="-455" y="110" width="10" height="10" as="geometry" />
        </mxCell>
        <mxCell id="VPmdxkoRCYv9EaFTGyUe-55" value="" style="endArrow=none;html=1;rounded=0;" parent="1" edge="1">
          <mxGeometry width="50" height="50" relative="1" as="geometry">
            <mxPoint x="-606.25" y="74.58" as="sourcePoint" />
            <mxPoint x="-520" y="75" as="targetPoint" />
          </mxGeometry>
        </mxCell>
        <mxCell id="VPmdxkoRCYv9EaFTGyUe-56" value="" style="verticalLabelPosition=bottom;verticalAlign=top;html=1;shape=mxgraph.flowchart.on-page_reference;fillColor=#000000;" parent="1" vertex="1">
          <mxGeometry x="-615" y="70" width="10" height="10" as="geometry" />
        </mxCell>
        <mxCell id="VPmdxkoRCYv9EaFTGyUe-57" value="" style="endArrow=none;html=1;rounded=0;entryX=0;entryY=0.5;entryDx=0;entryDy=0;" parent="1" target="VPmdxkoRCYv9EaFTGyUe-59" edge="1">
          <mxGeometry width="50" height="50" relative="1" as="geometry">
            <mxPoint x="-895" y="120" as="sourcePoint" />
            <mxPoint x="-805" y="120" as="targetPoint" />
          </mxGeometry>
        </mxCell>
        <mxCell id="VPmdxkoRCYv9EaFTGyUe-58" value="" style="endArrow=none;html=1;rounded=0;exitX=1;exitY=0.5;exitDx=0;exitDy=0;" parent="1" source="VPmdxkoRCYv9EaFTGyUe-59" edge="1">
          <mxGeometry width="50" height="50" relative="1" as="geometry">
            <mxPoint x="-685" y="119" as="sourcePoint" />
            <mxPoint x="-595" y="119.16999999999999" as="targetPoint" />
          </mxGeometry>
        </mxCell>
        <mxCell id="VPmdxkoRCYv9EaFTGyUe-59" value="&lt;font style=&quot;font-size: 18px;&quot;&gt;creazione&lt;/font&gt;" style="shape=rhombus;perimeter=rhombusPerimeter;whiteSpace=wrap;html=1;align=center;" parent="1" vertex="1">
          <mxGeometry x="-805" y="90" width="120" height="60" as="geometry" />
        </mxCell>
        <mxCell id="VPmdxkoRCYv9EaFTGyUe-70" value="&lt;font style=&quot;font-size: 18px;&quot;&gt;(0,N)&lt;/font&gt;" style="text;html=1;align=center;verticalAlign=middle;whiteSpace=wrap;rounded=0;" parent="1" vertex="1">
          <mxGeometry x="-885" y="100" width="40" height="20" as="geometry" />
        </mxCell>
        <mxCell id="VPmdxkoRCYv9EaFTGyUe-71" value="&lt;font style=&quot;font-size: 18px;&quot;&gt;(0,N)&lt;/font&gt;" style="text;html=1;align=center;verticalAlign=middle;whiteSpace=wrap;rounded=0;" parent="1" vertex="1">
          <mxGeometry x="-645" y="100" width="40" height="20" as="geometry" />
        </mxCell>
        <mxCell id="VPmdxkoRCYv9EaFTGyUe-138" value="&lt;span style=&quot;font-size: 18px;&quot;&gt;Esposizione&lt;/span&gt;" style="whiteSpace=wrap;html=1;align=center;" parent="1" vertex="1">
          <mxGeometry x="-935" y="360" width="110" height="50" as="geometry" />
        </mxCell>
        <mxCell id="VPmdxkoRCYv9EaFTGyUe-184" value="" style="endArrow=none;html=1;rounded=0;entryX=0.617;entryY=-0.019;entryDx=0;entryDy=0;entryPerimeter=0;" parent="1" source="VPmdxkoRCYv9EaFTGyUe-186" edge="1">
          <mxGeometry width="50" height="50" relative="1" as="geometry">
            <mxPoint x="-936.12" y="325.95" as="sourcePoint" />
            <mxPoint x="-890.63" y="360.00000000000006" as="targetPoint" />
          </mxGeometry>
        </mxCell>
        <mxCell id="VPmdxkoRCYv9EaFTGyUe-186" value="" style="verticalLabelPosition=bottom;verticalAlign=top;html=1;shape=mxgraph.flowchart.on-page_reference;fillColor=#FFFFFF;" parent="1" vertex="1">
          <mxGeometry x="-896" y="320.95" width="10" height="10" as="geometry" />
        </mxCell>
        <mxCell id="VPmdxkoRCYv9EaFTGyUe-196" value="" style="endArrow=none;html=1;rounded=0;entryX=0;entryY=0.75;entryDx=0;entryDy=0;" parent="1" edge="1" target="VPmdxkoRCYv9EaFTGyUe-1">
          <mxGeometry relative="1" as="geometry">
            <mxPoint x="-1350" y="130" as="sourcePoint" />
            <mxPoint x="-1005" y="119.6" as="targetPoint" />
          </mxGeometry>
        </mxCell>
        <mxCell id="VPmdxkoRCYv9EaFTGyUe-198" value="" style="endArrow=none;html=1;rounded=0;exitX=0.5;exitY=0;exitDx=0;exitDy=0;" parent="1" edge="1" source="VPmdxkoRCYv9EaFTGyUe-200">
          <mxGeometry relative="1" as="geometry">
            <mxPoint x="-1140" y="390" as="sourcePoint" />
            <mxPoint x="-1345" y="130" as="targetPoint" />
          </mxGeometry>
        </mxCell>
        <mxCell id="VPmdxkoRCYv9EaFTGyUe-200" value="&lt;span style=&quot;font-size: 18px;&quot;&gt;Appartenenza&lt;/span&gt;&lt;div&gt;&lt;span style=&quot;font-size: 18px;&quot;&gt;corrente&lt;/span&gt;&lt;/div&gt;" style="shape=rhombus;perimeter=rhombusPerimeter;whiteSpace=wrap;html=1;align=center;" parent="1" vertex="1">
          <mxGeometry x="-1450" y="288" width="210" height="108" as="geometry" />
        </mxCell>
        <mxCell id="VPmdxkoRCYv9EaFTGyUe-207" value="" style="endArrow=none;html=1;rounded=0;entryX=0.5;entryY=1;entryDx=0;entryDy=0;entryPerimeter=0;" parent="1" source="VPmdxkoRCYv9EaFTGyUe-216" edge="1">
          <mxGeometry width="50" height="50" relative="1" as="geometry">
            <mxPoint x="-107.5" y="260" as="sourcePoint" />
            <mxPoint x="-107.5" y="240" as="targetPoint" />
          </mxGeometry>
        </mxCell>
        <mxCell id="VPmdxkoRCYv9EaFTGyUe-208" value="&lt;span style=&quot;font-size: 18px;&quot;&gt;CF&lt;/span&gt;" style="text;html=1;align=center;verticalAlign=middle;whiteSpace=wrap;rounded=0;" parent="1" vertex="1">
          <mxGeometry x="-130" y="210" width="45" height="10" as="geometry" />
        </mxCell>
        <mxCell id="VPmdxkoRCYv9EaFTGyUe-215" value="" style="endArrow=none;html=1;rounded=0;entryX=0.5;entryY=1;entryDx=0;entryDy=0;entryPerimeter=0;" parent="1" target="VPmdxkoRCYv9EaFTGyUe-216" edge="1">
          <mxGeometry width="50" height="50" relative="1" as="geometry">
            <mxPoint x="-107.5" y="260" as="sourcePoint" />
            <mxPoint x="-107.5" y="240" as="targetPoint" />
          </mxGeometry>
        </mxCell>
        <mxCell id="VPmdxkoRCYv9EaFTGyUe-216" value="" style="verticalLabelPosition=bottom;verticalAlign=top;html=1;shape=mxgraph.flowchart.on-page_reference;fillColor=#000000;" parent="1" vertex="1">
          <mxGeometry x="-112.5" y="230" width="10" height="10" as="geometry" />
        </mxCell>
        <mxCell id="VPmdxkoRCYv9EaFTGyUe-228" value="&lt;span style=&quot;font-size: 18px;&quot;&gt;Guida&lt;/span&gt;" style="whiteSpace=wrap;html=1;align=center;" parent="1" vertex="1">
          <mxGeometry x="-160" y="260" width="110" height="50" as="geometry" />
        </mxCell>
        <mxCell id="VPmdxkoRCYv9EaFTGyUe-236" value="" style="verticalLabelPosition=bottom;verticalAlign=top;html=1;shape=mxgraph.flowchart.on-page_reference;" parent="1" vertex="1">
          <mxGeometry x="-85" y="330" width="10" height="10" as="geometry" />
        </mxCell>
        <mxCell id="VPmdxkoRCYv9EaFTGyUe-237" value="" style="endArrow=none;html=1;rounded=0;entryX=0.5;entryY=0;entryDx=0;entryDy=0;entryPerimeter=0;" parent="1" target="VPmdxkoRCYv9EaFTGyUe-236" edge="1">
          <mxGeometry width="50" height="50" relative="1" as="geometry">
            <mxPoint x="-80" y="310" as="sourcePoint" />
            <mxPoint x="-34" y="340" as="targetPoint" />
          </mxGeometry>
        </mxCell>
        <mxCell id="VPmdxkoRCYv9EaFTGyUe-238" value="&lt;span style=&quot;font-size: 18px;&quot;&gt;Conteggio&lt;/span&gt;" style="text;html=1;align=center;verticalAlign=middle;whiteSpace=wrap;rounded=0;" parent="1" vertex="1">
          <mxGeometry x="-104" y="350" width="45" height="10" as="geometry" />
        </mxCell>
        <mxCell id="VPmdxkoRCYv9EaFTGyUe-243" value="&lt;span style=&quot;font-size: 18px;&quot;&gt;Argomento&lt;/span&gt;" style="whiteSpace=wrap;html=1;align=center;" parent="1" vertex="1">
          <mxGeometry x="-490" y="470" width="110" height="50" as="geometry" />
        </mxCell>
        <mxCell id="VPmdxkoRCYv9EaFTGyUe-246" value="" style="verticalLabelPosition=bottom;verticalAlign=top;html=1;shape=mxgraph.flowchart.on-page_reference;fillColor=#000000;" parent="1" vertex="1">
          <mxGeometry x="-486" y="440" width="10" height="10" as="geometry" />
        </mxCell>
        <mxCell id="VPmdxkoRCYv9EaFTGyUe-247" value="" style="endArrow=none;html=1;rounded=0;entryX=0.5;entryY=1;entryDx=0;entryDy=0;entryPerimeter=0;" parent="1" target="VPmdxkoRCYv9EaFTGyUe-246" edge="1">
          <mxGeometry width="50" height="50" relative="1" as="geometry">
            <mxPoint x="-481" y="470" as="sourcePoint" />
            <mxPoint x="-436" y="450" as="targetPoint" />
          </mxGeometry>
        </mxCell>
        <mxCell id="VPmdxkoRCYv9EaFTGyUe-248" value="&lt;font style=&quot;font-size: 18px;&quot;&gt;Nome&lt;/font&gt;" style="text;html=1;align=center;verticalAlign=middle;whiteSpace=wrap;rounded=0;" parent="1" vertex="1">
          <mxGeometry x="-514" y="420" width="45" height="10" as="geometry" />
        </mxCell>
        <mxCell id="VPmdxkoRCYv9EaFTGyUe-258" value="" style="endArrow=none;html=1;rounded=0;entryX=0;entryY=0.5;entryDx=0;entryDy=0;exitX=1;exitY=0.5;exitDx=0;exitDy=0;" parent="1" source="VPmdxkoRCYv9EaFTGyUe-138" target="VPmdxkoRCYv9EaFTGyUe-260" edge="1">
          <mxGeometry width="50" height="50" relative="1" as="geometry">
            <mxPoint x="-790" y="500" as="sourcePoint" />
            <mxPoint x="-700" y="500" as="targetPoint" />
          </mxGeometry>
        </mxCell>
        <mxCell id="VPmdxkoRCYv9EaFTGyUe-259" value="" style="endArrow=none;html=1;rounded=0;exitX=0.5;exitY=1;exitDx=0;exitDy=0;entryX=0.5;entryY=0;entryDx=0;entryDy=0;" parent="1" source="VPmdxkoRCYv9EaFTGyUe-260" edge="1" target="VPmdxkoRCYv9EaFTGyUe-243">
          <mxGeometry width="50" height="50" relative="1" as="geometry">
            <mxPoint x="-580" y="499" as="sourcePoint" />
            <mxPoint x="-490" y="500" as="targetPoint" />
          </mxGeometry>
        </mxCell>
        <mxCell id="VPmdxkoRCYv9EaFTGyUe-260" value="&lt;span style=&quot;font-size: 18px;&quot;&gt;trattazione&lt;/span&gt;" style="shape=rhombus;perimeter=rhombusPerimeter;whiteSpace=wrap;html=1;align=center;" parent="1" vertex="1">
          <mxGeometry x="-495" y="355" width="120" height="60" as="geometry" />
        </mxCell>
        <mxCell id="VPmdxkoRCYv9EaFTGyUe-261" value="&lt;font style=&quot;font-size: 18px;&quot;&gt;(1,1)&lt;/font&gt;" style="text;html=1;align=center;verticalAlign=middle;whiteSpace=wrap;rounded=0;" parent="1" vertex="1">
          <mxGeometry x="-540" y="360" width="40" height="20" as="geometry" />
        </mxCell>
        <mxCell id="VPmdxkoRCYv9EaFTGyUe-262" value="&lt;font style=&quot;font-size: 18px;&quot;&gt;(0,N)&lt;/font&gt;" style="text;html=1;align=center;verticalAlign=middle;whiteSpace=wrap;rounded=0;" parent="1" vertex="1">
          <mxGeometry x="-420" y="430" width="40" height="20" as="geometry" />
        </mxCell>
        <mxCell id="VPmdxkoRCYv9EaFTGyUe-263" value="&lt;span style=&quot;font-size: 18px;&quot;&gt;conoscenza&lt;/span&gt;" style="shape=rhombus;perimeter=rhombusPerimeter;whiteSpace=wrap;html=1;align=center;" parent="1" vertex="1">
          <mxGeometry x="-340" y="360" width="120" height="60" as="geometry" />
        </mxCell>
        <mxCell id="VPmdxkoRCYv9EaFTGyUe-264" value="" style="endArrow=none;html=1;rounded=0;exitX=0.5;exitY=0;exitDx=0;exitDy=0;" parent="1" source="VPmdxkoRCYv9EaFTGyUe-263" edge="1">
          <mxGeometry width="50" height="50" relative="1" as="geometry">
            <mxPoint x="-331.5" y="300" as="sourcePoint" />
            <mxPoint x="-279.5" y="280" as="targetPoint" />
          </mxGeometry>
        </mxCell>
        <mxCell id="VPmdxkoRCYv9EaFTGyUe-265" value="&lt;font style=&quot;font-size: 18px;&quot;&gt;(1,1)&lt;/font&gt;" style="text;html=1;align=center;verticalAlign=middle;whiteSpace=wrap;rounded=0;" parent="1" vertex="1">
          <mxGeometry x="-274" y="320" width="40" height="20" as="geometry" />
        </mxCell>
        <mxCell id="VPmdxkoRCYv9EaFTGyUe-266" value="" style="endArrow=none;html=1;rounded=0;exitX=0.5;exitY=0;exitDx=0;exitDy=0;entryX=0.5;entryY=1;entryDx=0;entryDy=0;" parent="1" target="VPmdxkoRCYv9EaFTGyUe-263" edge="1">
          <mxGeometry width="50" height="50" relative="1" as="geometry">
            <mxPoint x="-279.5" y="500" as="sourcePoint" />
            <mxPoint x="-279.5" y="420" as="targetPoint" />
          </mxGeometry>
        </mxCell>
        <mxCell id="VPmdxkoRCYv9EaFTGyUe-267" value="&lt;font style=&quot;font-size: 18px;&quot;&gt;(0,N)&lt;/font&gt;" style="text;html=1;align=center;verticalAlign=middle;whiteSpace=wrap;rounded=0;" parent="1" vertex="1">
          <mxGeometry x="-274" y="460" width="40" height="20" as="geometry" />
        </mxCell>
        <mxCell id="VPmdxkoRCYv9EaFTGyUe-268" value="" style="endArrow=none;html=1;rounded=0;" parent="1" edge="1">
          <mxGeometry width="50" height="50" relative="1" as="geometry">
            <mxPoint x="-280" y="280" as="sourcePoint" />
            <mxPoint x="-160" y="280" as="targetPoint" />
          </mxGeometry>
        </mxCell>
        <mxCell id="VPmdxkoRCYv9EaFTGyUe-269" value="" style="endArrow=none;html=1;rounded=0;" parent="1" edge="1">
          <mxGeometry width="50" height="50" relative="1" as="geometry">
            <mxPoint x="-380" y="500" as="sourcePoint" />
            <mxPoint x="-280" y="500" as="targetPoint" />
          </mxGeometry>
        </mxCell>
        <mxCell id="VPmdxkoRCYv9EaFTGyUe-277" value="&lt;span style=&quot;font-size: 18px;&quot;&gt;Visita Guidata&lt;/span&gt;" style="whiteSpace=wrap;html=1;align=center;" parent="1" vertex="1">
          <mxGeometry x="-642.5" y="670" width="149" height="50" as="geometry" />
        </mxCell>
        <mxCell id="VPmdxkoRCYv9EaFTGyUe-280" value="" style="verticalLabelPosition=bottom;verticalAlign=top;html=1;shape=mxgraph.flowchart.on-page_reference;" parent="1" vertex="1">
          <mxGeometry x="-635" y="640" width="10" height="10" as="geometry" />
        </mxCell>
        <mxCell id="VPmdxkoRCYv9EaFTGyUe-281" value="" style="endArrow=none;html=1;rounded=0;entryX=0.5;entryY=1;entryDx=0;entryDy=0;entryPerimeter=0;" parent="1" target="VPmdxkoRCYv9EaFTGyUe-280" edge="1">
          <mxGeometry width="50" height="50" relative="1" as="geometry">
            <mxPoint x="-630" y="670" as="sourcePoint" />
            <mxPoint x="-585" y="650" as="targetPoint" />
          </mxGeometry>
        </mxCell>
        <mxCell id="VPmdxkoRCYv9EaFTGyUe-282" value="&lt;font style=&quot;font-size: 18px;&quot;&gt;Data Visita&lt;/font&gt;" style="text;html=1;align=center;verticalAlign=middle;whiteSpace=wrap;rounded=0;" parent="1" vertex="1">
          <mxGeometry x="-703.5" y="620" width="92.5" height="10" as="geometry" />
        </mxCell>
        <mxCell id="VPmdxkoRCYv9EaFTGyUe-283" value="" style="verticalLabelPosition=bottom;verticalAlign=top;html=1;shape=mxgraph.flowchart.on-page_reference;" parent="1" vertex="1">
          <mxGeometry x="-527.5" y="640" width="10" height="10" as="geometry" />
        </mxCell>
        <mxCell id="VPmdxkoRCYv9EaFTGyUe-284" value="" style="endArrow=none;html=1;rounded=0;entryX=0.5;entryY=1;entryDx=0;entryDy=0;entryPerimeter=0;" parent="1" target="VPmdxkoRCYv9EaFTGyUe-283" edge="1">
          <mxGeometry width="50" height="50" relative="1" as="geometry">
            <mxPoint x="-522.5" y="670" as="sourcePoint" />
            <mxPoint x="-477.5" y="650" as="targetPoint" />
          </mxGeometry>
        </mxCell>
        <mxCell id="VPmdxkoRCYv9EaFTGyUe-285" value="&lt;span style=&quot;font-size: 18px;&quot;&gt;Turno&lt;/span&gt;" style="text;html=1;align=center;verticalAlign=middle;whiteSpace=wrap;rounded=0;" parent="1" vertex="1">
          <mxGeometry x="-545" y="620" width="45" height="10" as="geometry" />
        </mxCell>
        <mxCell id="VPmdxkoRCYv9EaFTGyUe-288" value="" style="verticalLabelPosition=bottom;verticalAlign=top;html=1;shape=mxgraph.flowchart.on-page_reference;" parent="1" vertex="1">
          <mxGeometry x="-627.5" y="740" width="10" height="10" as="geometry" />
        </mxCell>
        <mxCell id="VPmdxkoRCYv9EaFTGyUe-289" value="" style="endArrow=none;html=1;rounded=0;entryX=0.5;entryY=0;entryDx=0;entryDy=0;entryPerimeter=0;" parent="1" target="VPmdxkoRCYv9EaFTGyUe-288" edge="1">
          <mxGeometry width="50" height="50" relative="1" as="geometry">
            <mxPoint x="-622.5" y="720" as="sourcePoint" />
            <mxPoint x="-577.5" y="750" as="targetPoint" />
          </mxGeometry>
        </mxCell>
        <mxCell id="VPmdxkoRCYv9EaFTGyUe-290" value="&lt;span style=&quot;font-size: 18px;&quot;&gt;Partecipanti&lt;/span&gt;" style="text;html=1;align=center;verticalAlign=middle;whiteSpace=wrap;rounded=0;" parent="1" vertex="1">
          <mxGeometry x="-670" y="760" width="107.5" height="10" as="geometry" />
        </mxCell>
        <mxCell id="VPmdxkoRCYv9EaFTGyUe-291" value="&lt;font style=&quot;font-size: 18px;&quot;&gt;gestione&lt;/font&gt;" style="shape=rhombus;perimeter=rhombusPerimeter;whiteSpace=wrap;html=1;align=center;" parent="1" vertex="1">
          <mxGeometry x="-205" y="670" width="120" height="60" as="geometry" />
        </mxCell>
        <mxCell id="VPmdxkoRCYv9EaFTGyUe-292" value="" style="endArrow=none;html=1;rounded=0;exitX=0.5;exitY=0;exitDx=0;exitDy=0;entryX=0.127;entryY=1.004;entryDx=0;entryDy=0;entryPerimeter=0;" parent="1" source="VPmdxkoRCYv9EaFTGyUe-291" target="VPmdxkoRCYv9EaFTGyUe-228" edge="1">
          <mxGeometry width="50" height="50" relative="1" as="geometry">
            <mxPoint x="-196.5" y="570" as="sourcePoint" />
            <mxPoint x="-144.5" y="550" as="targetPoint" />
          </mxGeometry>
        </mxCell>
        <mxCell id="VPmdxkoRCYv9EaFTGyUe-293" value="&lt;span style=&quot;font-size: 18px;&quot;&gt;(1,N)&lt;/span&gt;" style="text;html=1;align=center;verticalAlign=middle;whiteSpace=wrap;rounded=0;" parent="1" vertex="1">
          <mxGeometry x="-142.5" y="580" width="40" height="20" as="geometry" />
        </mxCell>
        <mxCell id="VPmdxkoRCYv9EaFTGyUe-294" value="" style="endArrow=none;html=1;rounded=0;entryX=0;entryY=0.5;entryDx=0;entryDy=0;exitX=0.998;exitY=0.588;exitDx=0;exitDy=0;exitPerimeter=0;" parent="1" source="VPmdxkoRCYv9EaFTGyUe-277" target="VPmdxkoRCYv9EaFTGyUe-291" edge="1">
          <mxGeometry width="50" height="50" relative="1" as="geometry">
            <mxPoint x="-440" y="690" as="sourcePoint" />
            <mxPoint x="-205" y="640" as="targetPoint" />
          </mxGeometry>
        </mxCell>
        <mxCell id="VPmdxkoRCYv9EaFTGyUe-295" value="&lt;font style=&quot;font-size: 18px;&quot;&gt;(1,1)&lt;/font&gt;" style="text;html=1;align=center;verticalAlign=middle;whiteSpace=wrap;rounded=0;" parent="1" vertex="1">
          <mxGeometry x="-360" y="670" width="40" height="20" as="geometry" />
        </mxCell>
        <mxCell id="VPmdxkoRCYv9EaFTGyUe-296" value="&lt;span style=&quot;font-size: 18px;&quot;&gt;presentazione&lt;/span&gt;" style="shape=rhombus;perimeter=rhombusPerimeter;whiteSpace=wrap;html=1;align=center;" parent="1" vertex="1">
          <mxGeometry x="-680" y="440" width="152.5" height="60" as="geometry" />
        </mxCell>
        <mxCell id="VPmdxkoRCYv9EaFTGyUe-299" value="" style="endArrow=none;html=1;rounded=0;exitX=0.25;exitY=0;exitDx=0;exitDy=0;entryX=0.5;entryY=1;entryDx=0;entryDy=0;" parent="1" source="VPmdxkoRCYv9EaFTGyUe-277" target="VPmdxkoRCYv9EaFTGyUe-296" edge="1">
          <mxGeometry width="50" height="50" relative="1" as="geometry">
            <mxPoint x="-769.5" y="780" as="sourcePoint" />
            <mxPoint x="-770" y="700" as="targetPoint" />
          </mxGeometry>
        </mxCell>
        <mxCell id="VPmdxkoRCYv9EaFTGyUe-300" value="&lt;font style=&quot;font-size: 18px;&quot;&gt;(1,1)&lt;/font&gt;" style="text;html=1;align=center;verticalAlign=middle;whiteSpace=wrap;rounded=0;" parent="1" vertex="1">
          <mxGeometry x="-660" y="558" width="40" height="20" as="geometry" />
        </mxCell>
        <mxCell id="VPmdxkoRCYv9EaFTGyUe-307" value="" style="verticalLabelPosition=bottom;verticalAlign=top;html=1;shape=mxgraph.flowchart.on-page_reference;fillColor=#000000;" parent="1" vertex="1">
          <mxGeometry x="-695" y="680" width="10" height="10" as="geometry" />
        </mxCell>
        <mxCell id="VPmdxkoRCYv9EaFTGyUe-310" value="&lt;font style=&quot;font-size: 18px;&quot;&gt;riferimento&lt;/font&gt;" style="shape=rhombus;perimeter=rhombusPerimeter;whiteSpace=wrap;html=1;align=center;" parent="1" vertex="1">
          <mxGeometry x="-580" y="850" width="120" height="60" as="geometry" />
        </mxCell>
        <mxCell id="VPmdxkoRCYv9EaFTGyUe-311" value="" style="endArrow=none;html=1;rounded=0;exitX=0.5;exitY=0;exitDx=0;exitDy=0;" parent="1" source="VPmdxkoRCYv9EaFTGyUe-310" edge="1">
          <mxGeometry width="50" height="50" relative="1" as="geometry">
            <mxPoint x="-571.5" y="740" as="sourcePoint" />
            <mxPoint x="-519.5" y="720" as="targetPoint" />
          </mxGeometry>
        </mxCell>
        <mxCell id="VPmdxkoRCYv9EaFTGyUe-312" value="&lt;font style=&quot;font-size: 18px;&quot;&gt;(0,N)&lt;/font&gt;" style="text;html=1;align=center;verticalAlign=middle;whiteSpace=wrap;rounded=0;" parent="1" vertex="1">
          <mxGeometry x="-514" y="760" width="40" height="20" as="geometry" />
        </mxCell>
        <mxCell id="VPmdxkoRCYv9EaFTGyUe-313" value="" style="endArrow=none;html=1;rounded=0;entryX=0.5;entryY=1;entryDx=0;entryDy=0;" parent="1" target="VPmdxkoRCYv9EaFTGyUe-310" edge="1">
          <mxGeometry width="50" height="50" relative="1" as="geometry">
            <mxPoint x="-520" y="1030" as="sourcePoint" />
            <mxPoint x="-519.5" y="860" as="targetPoint" />
          </mxGeometry>
        </mxCell>
        <mxCell id="VPmdxkoRCYv9EaFTGyUe-314" value="&lt;font style=&quot;font-size: 18px;&quot;&gt;(1,1)&lt;/font&gt;" style="text;html=1;align=center;verticalAlign=middle;whiteSpace=wrap;rounded=0;" parent="1" vertex="1">
          <mxGeometry x="-515" y="950" width="40" height="20" as="geometry" />
        </mxCell>
        <mxCell id="VPmdxkoRCYv9EaFTGyUe-315" value="&lt;span style=&quot;font-size: 18px;&quot;&gt;I. Guidato&lt;/span&gt;" style="whiteSpace=wrap;html=1;align=center;" parent="1" vertex="1">
          <mxGeometry x="-735" y="1000" width="110" height="50" as="geometry" />
        </mxCell>
        <mxCell id="VPmdxkoRCYv9EaFTGyUe-316" value="&lt;span style=&quot;font-size: 18px;&quot;&gt;I. Libero&lt;/span&gt;" style="whiteSpace=wrap;html=1;align=center;" parent="1" vertex="1">
          <mxGeometry x="-961" y="1000" width="110" height="50" as="geometry" />
        </mxCell>
        <mxCell id="VPmdxkoRCYv9EaFTGyUe-328" value="&lt;span style=&quot;font-size: 18px;&quot;&gt;Biglietto&lt;/span&gt;" style="whiteSpace=wrap;html=1;align=center;" parent="1" vertex="1">
          <mxGeometry x="-868.5" y="870" width="110" height="50" as="geometry" />
        </mxCell>
        <mxCell id="VPmdxkoRCYv9EaFTGyUe-329" value="" style="endArrow=none;html=1;rounded=0;entryX=0.5;entryY=1;entryDx=0;entryDy=0;entryPerimeter=0;" parent="1" source="VPmdxkoRCYv9EaFTGyUe-338" edge="1">
          <mxGeometry width="50" height="50" relative="1" as="geometry">
            <mxPoint x="-862.5" y="870" as="sourcePoint" />
            <mxPoint x="-862.5" y="850" as="targetPoint" />
          </mxGeometry>
        </mxCell>
        <mxCell id="VPmdxkoRCYv9EaFTGyUe-330" value="&lt;span style=&quot;font-size: 18px;&quot;&gt;ID&lt;/span&gt;" style="text;html=1;align=center;verticalAlign=middle;whiteSpace=wrap;rounded=0;" parent="1" vertex="1">
          <mxGeometry x="-885" y="820" width="45" height="10" as="geometry" />
        </mxCell>
        <mxCell id="VPmdxkoRCYv9EaFTGyUe-331" value="" style="verticalLabelPosition=bottom;verticalAlign=top;html=1;shape=mxgraph.flowchart.on-page_reference;" parent="1" vertex="1">
          <mxGeometry x="-830" y="840" width="10" height="10" as="geometry" />
        </mxCell>
        <mxCell id="VPmdxkoRCYv9EaFTGyUe-332" value="" style="endArrow=none;html=1;rounded=0;entryX=0.5;entryY=1;entryDx=0;entryDy=0;entryPerimeter=0;" parent="1" target="VPmdxkoRCYv9EaFTGyUe-331" edge="1">
          <mxGeometry width="50" height="50" relative="1" as="geometry">
            <mxPoint x="-825" y="870" as="sourcePoint" />
            <mxPoint x="-780" y="850" as="targetPoint" />
          </mxGeometry>
        </mxCell>
        <mxCell id="VPmdxkoRCYv9EaFTGyUe-333" value="&lt;span style=&quot;font-size: 18px;&quot;&gt;Email&lt;/span&gt;" style="text;html=1;align=center;verticalAlign=middle;whiteSpace=wrap;rounded=0;" parent="1" vertex="1">
          <mxGeometry x="-845" y="820" width="45" height="10" as="geometry" />
        </mxCell>
        <mxCell id="VPmdxkoRCYv9EaFTGyUe-334" value="" style="verticalLabelPosition=bottom;verticalAlign=top;html=1;shape=mxgraph.flowchart.on-page_reference;" parent="1" vertex="1">
          <mxGeometry x="-768.5" y="840" width="10" height="10" as="geometry" />
        </mxCell>
        <mxCell id="VPmdxkoRCYv9EaFTGyUe-335" value="" style="endArrow=none;html=1;rounded=0;entryX=0.5;entryY=1;entryDx=0;entryDy=0;entryPerimeter=0;" parent="1" target="VPmdxkoRCYv9EaFTGyUe-334" edge="1">
          <mxGeometry width="50" height="50" relative="1" as="geometry">
            <mxPoint x="-763.5" y="870" as="sourcePoint" />
            <mxPoint x="-718.5" y="850" as="targetPoint" />
          </mxGeometry>
        </mxCell>
        <mxCell id="VPmdxkoRCYv9EaFTGyUe-336" value="&lt;font style=&quot;font-size: 18px;&quot;&gt;Data Acq.&lt;/font&gt;" style="text;html=1;align=center;verticalAlign=middle;whiteSpace=wrap;rounded=0;" parent="1" vertex="1">
          <mxGeometry x="-800" y="820" width="96.5" height="10" as="geometry" />
        </mxCell>
        <mxCell id="VPmdxkoRCYv9EaFTGyUe-337" value="" style="endArrow=none;html=1;rounded=0;entryX=0.5;entryY=1;entryDx=0;entryDy=0;entryPerimeter=0;" parent="1" target="VPmdxkoRCYv9EaFTGyUe-338" edge="1">
          <mxGeometry width="50" height="50" relative="1" as="geometry">
            <mxPoint x="-862.5" y="870" as="sourcePoint" />
            <mxPoint x="-862.5" y="850" as="targetPoint" />
          </mxGeometry>
        </mxCell>
        <mxCell id="VPmdxkoRCYv9EaFTGyUe-338" value="" style="verticalLabelPosition=bottom;verticalAlign=top;html=1;shape=mxgraph.flowchart.on-page_reference;fillColor=#000000;" parent="1" vertex="1">
          <mxGeometry x="-867.5" y="840" width="10" height="10" as="geometry" />
        </mxCell>
        <mxCell id="VPmdxkoRCYv9EaFTGyUe-339" value="" style="endArrow=none;html=1;rounded=0;exitX=1.001;exitY=0.606;exitDx=0;exitDy=0;exitPerimeter=0;" parent="1" source="VPmdxkoRCYv9EaFTGyUe-315" edge="1">
          <mxGeometry width="50" height="50" relative="1" as="geometry">
            <mxPoint x="-570" y="1030" as="sourcePoint" />
            <mxPoint x="-520" y="1030" as="targetPoint" />
          </mxGeometry>
        </mxCell>
        <mxCell id="VPmdxkoRCYv9EaFTGyUe-343" style="edgeStyle=orthogonalEdgeStyle;rounded=0;orthogonalLoop=1;jettySize=auto;html=1;strokeWidth=4;entryX=0.5;entryY=1;entryDx=0;entryDy=0;" parent="1" target="VPmdxkoRCYv9EaFTGyUe-328" edge="1">
          <mxGeometry relative="1" as="geometry">
            <mxPoint x="-920" y="998" as="sourcePoint" />
            <mxPoint x="-750" y="930" as="targetPoint" />
            <Array as="points">
              <mxPoint x="-920" y="960" />
              <mxPoint x="-813" y="960" />
            </Array>
          </mxGeometry>
        </mxCell>
        <mxCell id="VPmdxkoRCYv9EaFTGyUe-344" style="edgeStyle=orthogonalEdgeStyle;rounded=0;orthogonalLoop=1;jettySize=auto;html=1;entryX=0.5;entryY=1;entryDx=0;entryDy=0;strokeWidth=4;exitX=0.5;exitY=0;exitDx=0;exitDy=0;" parent="1" source="VPmdxkoRCYv9EaFTGyUe-315" edge="1">
          <mxGeometry relative="1" as="geometry">
            <mxPoint x="-735" y="990" as="sourcePoint" />
            <mxPoint x="-815" y="920" as="targetPoint" />
          </mxGeometry>
        </mxCell>
        <mxCell id="LgWNFSchvh-kqdZ_exQb-1" value="" style="verticalLabelPosition=bottom;verticalAlign=top;html=1;shape=mxgraph.flowchart.on-page_reference;" parent="1" vertex="1">
          <mxGeometry x="-917.5" y="1070" width="10" height="10" as="geometry" />
        </mxCell>
        <mxCell id="LgWNFSchvh-kqdZ_exQb-2" value="" style="endArrow=none;html=1;rounded=0;entryX=0.5;entryY=1;entryDx=0;entryDy=0;entryPerimeter=0;" parent="1" edge="1">
          <mxGeometry width="50" height="50" relative="1" as="geometry">
            <mxPoint x="-912.62" y="1070" as="sourcePoint" />
            <mxPoint x="-912.62" y="1050" as="targetPoint" />
          </mxGeometry>
        </mxCell>
        <mxCell id="LgWNFSchvh-kqdZ_exQb-3" value="&lt;span style=&quot;font-size: 18px;&quot;&gt;Data val.&lt;/span&gt;" style="text;html=1;align=center;verticalAlign=middle;whiteSpace=wrap;rounded=0;" parent="1" vertex="1">
          <mxGeometry x="-952.5" y="1090" width="85" height="10" as="geometry" />
        </mxCell>
        <mxCell id="XXp2-Ove9_P-jNbOQPr0-2" value="&lt;font style=&quot;font-size: 18px;&quot;&gt;Inizio&lt;/font&gt;" style="text;html=1;align=center;verticalAlign=middle;resizable=0;points=[];autosize=1;strokeColor=none;fillColor=none;" parent="1" vertex="1">
          <mxGeometry x="-914" y="290" width="70" height="40" as="geometry" />
        </mxCell>
        <mxCell id="GoX0HQxmNpDDhMxRZH0c-1" value="" style="endArrow=none;html=1;rounded=0;entryX=0.5;entryY=1;entryDx=0;entryDy=0;entryPerimeter=0;" parent="1" edge="1">
          <mxGeometry width="50" height="50" relative="1" as="geometry">
            <mxPoint x="-931" y="370" as="sourcePoint" />
            <mxPoint x="-931" y="370" as="targetPoint" />
          </mxGeometry>
        </mxCell>
        <mxCell id="IgAoc9PuT6BzsLdgYkdI-5" value="&lt;span style=&quot;font-size: 18px;&quot;&gt;Area&lt;/span&gt;" style="text;html=1;align=center;verticalAlign=middle;whiteSpace=wrap;rounded=0;" vertex="1" parent="1">
          <mxGeometry x="-954" y="307" width="45" height="10" as="geometry" />
        </mxCell>
        <mxCell id="IgAoc9PuT6BzsLdgYkdI-6" value="" style="verticalLabelPosition=bottom;verticalAlign=top;html=1;shape=mxgraph.flowchart.on-page_reference;fillColor=#000000;" vertex="1" parent="1">
          <mxGeometry x="-955" y="337" width="10" height="10" as="geometry" />
        </mxCell>
        <mxCell id="IgAoc9PuT6BzsLdgYkdI-7" value="" style="endArrow=none;html=1;rounded=0;entryX=0.617;entryY=-0.019;entryDx=0;entryDy=0;entryPerimeter=0;" edge="1" parent="1">
          <mxGeometry width="50" height="50" relative="1" as="geometry">
            <mxPoint x="-931" y="332" as="sourcePoint" />
            <mxPoint x="-930.63" y="361.00000000000006" as="targetPoint" />
          </mxGeometry>
        </mxCell>
        <mxCell id="IgAoc9PuT6BzsLdgYkdI-8" style="edgeStyle=orthogonalEdgeStyle;rounded=0;orthogonalLoop=1;jettySize=auto;html=1;entryX=0;entryY=0.5;entryDx=0;entryDy=0;strokeWidth=4;" edge="1" parent="1" source="IgAoc9PuT6BzsLdgYkdI-9" target="VPmdxkoRCYv9EaFTGyUe-138">
          <mxGeometry relative="1" as="geometry">
            <mxPoint x="-877.5" y="410" as="targetPoint" />
          </mxGeometry>
        </mxCell>
        <mxCell id="IgAoc9PuT6BzsLdgYkdI-9" value="&lt;span style=&quot;font-size: 18px;&quot;&gt;In_corso&lt;/span&gt;" style="whiteSpace=wrap;html=1;align=center;" vertex="1" parent="1">
          <mxGeometry x="-1130" y="317" width="110" height="50" as="geometry" />
        </mxCell>
        <mxCell id="IgAoc9PuT6BzsLdgYkdI-10" style="edgeStyle=orthogonalEdgeStyle;rounded=0;orthogonalLoop=1;jettySize=auto;html=1;entryX=0;entryY=0.5;entryDx=0;entryDy=0;strokeWidth=4;" edge="1" parent="1" source="IgAoc9PuT6BzsLdgYkdI-11" target="VPmdxkoRCYv9EaFTGyUe-138">
          <mxGeometry relative="1" as="geometry">
            <mxPoint x="-877.5" y="410" as="targetPoint" />
          </mxGeometry>
        </mxCell>
        <mxCell id="IgAoc9PuT6BzsLdgYkdI-11" value="&lt;font style=&quot;font-size: 18px;&quot;&gt;Passata&lt;/font&gt;" style="whiteSpace=wrap;html=1;align=center;" vertex="1" parent="1">
          <mxGeometry x="-1130" y="400" width="110" height="50" as="geometry" />
        </mxCell>
        <mxCell id="IgAoc9PuT6BzsLdgYkdI-12" value="" style="endArrow=none;html=1;rounded=0;entryX=0.5;entryY=0;entryDx=0;entryDy=0;" edge="1" parent="1" target="VPmdxkoRCYv9EaFTGyUe-296">
          <mxGeometry width="50" height="50" relative="1" as="geometry">
            <mxPoint x="-604" y="400" as="sourcePoint" />
            <mxPoint x="-605" y="240" as="targetPoint" />
          </mxGeometry>
        </mxCell>
        <mxCell id="IgAoc9PuT6BzsLdgYkdI-13" value="" style="endArrow=none;html=1;rounded=0;exitX=1;exitY=0.75;exitDx=0;exitDy=0;" edge="1" parent="1" source="VPmdxkoRCYv9EaFTGyUe-138">
          <mxGeometry width="50" height="50" relative="1" as="geometry">
            <mxPoint x="-825" y="397.5" as="sourcePoint" />
            <mxPoint x="-600" y="400" as="targetPoint" />
          </mxGeometry>
        </mxCell>
        <mxCell id="IgAoc9PuT6BzsLdgYkdI-14" value="" style="endArrow=none;html=1;rounded=0;entryX=0;entryY=0.5;entryDx=0;entryDy=0;exitX=1;exitY=0.5;exitDx=0;exitDy=0;" edge="1" parent="1" source="VPmdxkoRCYv9EaFTGyUe-200" target="IgAoc9PuT6BzsLdgYkdI-9">
          <mxGeometry relative="1" as="geometry">
            <mxPoint x="-1350" y="337" as="sourcePoint" />
            <mxPoint x="-865" y="330" as="targetPoint" />
          </mxGeometry>
        </mxCell>
        <mxCell id="IgAoc9PuT6BzsLdgYkdI-15" value="" style="endArrow=none;html=1;rounded=0;entryX=0;entryY=0.25;entryDx=0;entryDy=0;" edge="1" parent="1" target="VPmdxkoRCYv9EaFTGyUe-1">
          <mxGeometry relative="1" as="geometry">
            <mxPoint x="-1500" y="103" as="sourcePoint" />
            <mxPoint x="-1035" y="100" as="targetPoint" />
          </mxGeometry>
        </mxCell>
        <mxCell id="IgAoc9PuT6BzsLdgYkdI-16" value="&lt;span style=&quot;font-size: 18px;&quot;&gt;Appartenenza&lt;/span&gt;&lt;div&gt;&lt;span style=&quot;font-size: 18px;&quot;&gt;corrente&lt;/span&gt;&lt;/div&gt;" style="shape=rhombus;perimeter=rhombusPerimeter;whiteSpace=wrap;html=1;align=center;" vertex="1" parent="1">
          <mxGeometry x="-1460" y="450" width="210" height="108" as="geometry" />
        </mxCell>
        <mxCell id="IgAoc9PuT6BzsLdgYkdI-17" value="" style="endArrow=none;html=1;rounded=0;" edge="1" parent="1">
          <mxGeometry relative="1" as="geometry">
            <mxPoint x="-1500" y="100" as="sourcePoint" />
            <mxPoint x="-1500" y="510" as="targetPoint" />
          </mxGeometry>
        </mxCell>
        <mxCell id="IgAoc9PuT6BzsLdgYkdI-18" value="" style="endArrow=none;html=1;rounded=0;entryX=0;entryY=0.5;entryDx=0;entryDy=0;" edge="1" parent="1" target="IgAoc9PuT6BzsLdgYkdI-16">
          <mxGeometry relative="1" as="geometry">
            <mxPoint x="-1500" y="504" as="sourcePoint" />
            <mxPoint x="-995" y="510" as="targetPoint" />
          </mxGeometry>
        </mxCell>
        <mxCell id="IgAoc9PuT6BzsLdgYkdI-19" value="" style="endArrow=none;html=1;rounded=0;exitX=1;exitY=0.5;exitDx=0;exitDy=0;" edge="1" parent="1" source="IgAoc9PuT6BzsLdgYkdI-16">
          <mxGeometry relative="1" as="geometry">
            <mxPoint x="-1210" y="560" as="sourcePoint" />
            <mxPoint x="-1070" y="504" as="targetPoint" />
          </mxGeometry>
        </mxCell>
        <mxCell id="IgAoc9PuT6BzsLdgYkdI-20" value="" style="endArrow=none;html=1;rounded=0;entryX=0.5;entryY=1;entryDx=0;entryDy=0;" edge="1" parent="1" target="IgAoc9PuT6BzsLdgYkdI-11">
          <mxGeometry relative="1" as="geometry">
            <mxPoint x="-1075" y="510" as="sourcePoint" />
            <mxPoint x="-615" y="500" as="targetPoint" />
          </mxGeometry>
        </mxCell>
        <mxCell id="IgAoc9PuT6BzsLdgYkdI-28" value="&lt;font style=&quot;font-size: 18px;&quot;&gt;(1,N)&lt;/font&gt;" style="text;html=1;align=center;verticalAlign=middle;whiteSpace=wrap;rounded=0;" vertex="1" parent="1">
          <mxGeometry x="-1220" y="480" width="40" height="20" as="geometry" />
        </mxCell>
        <mxCell id="IgAoc9PuT6BzsLdgYkdI-29" value="&lt;font style=&quot;font-size: 18px;&quot;&gt;(0,N)&lt;/font&gt;" style="text;html=1;align=center;verticalAlign=middle;whiteSpace=wrap;rounded=0;" vertex="1" parent="1">
          <mxGeometry x="-1550" y="400" width="40" height="20" as="geometry" />
        </mxCell>
        <mxCell id="IgAoc9PuT6BzsLdgYkdI-30" value="&lt;font style=&quot;font-size: 18px;&quot;&gt;(1,1)&lt;/font&gt;" style="text;html=1;align=center;verticalAlign=middle;whiteSpace=wrap;rounded=0;" vertex="1" parent="1">
          <mxGeometry x="-1330" y="210" width="40" height="20" as="geometry" />
        </mxCell>
        <mxCell id="IgAoc9PuT6BzsLdgYkdI-31" value="&lt;font style=&quot;font-size: 18px;&quot;&gt;(1,N)&lt;/font&gt;" style="text;html=1;align=center;verticalAlign=middle;whiteSpace=wrap;rounded=0;" vertex="1" parent="1">
          <mxGeometry x="-1220" y="310" width="40" height="20" as="geometry" />
        </mxCell>
        <mxCell id="IgAoc9PuT6BzsLdgYkdI-34" value="" style="endArrow=none;html=1;rounded=0;entryX=0;entryY=0.25;entryDx=0;entryDy=0;" edge="1" parent="1" target="VPmdxkoRCYv9EaFTGyUe-277">
          <mxGeometry width="50" height="50" relative="1" as="geometry">
            <mxPoint x="-690" y="685" as="sourcePoint" />
            <mxPoint x="-690" y="660" as="targetPoint" />
          </mxGeometry>
        </mxCell>
        <mxCell id="IgAoc9PuT6BzsLdgYkdI-35" value="&lt;span style=&quot;font-size: 18px;&quot;&gt;ID&lt;/span&gt;" style="text;html=1;align=center;verticalAlign=middle;whiteSpace=wrap;rounded=0;" vertex="1" parent="1">
          <mxGeometry x="-730" y="680" width="45" height="10" as="geometry" />
        </mxCell>
        <mxCell id="IgAoc9PuT6BzsLdgYkdI-36" value="&lt;span style=&quot;font-size: 18px;&quot;&gt;(1,N)&lt;/span&gt;" style="text;html=1;align=center;verticalAlign=middle;whiteSpace=wrap;rounded=0;" vertex="1" parent="1">
          <mxGeometry x="-760" y="400" width="40" height="20" as="geometry" />
        </mxCell>
        <mxCell id="IgAoc9PuT6BzsLdgYkdI-37" value="" style="endArrow=none;html=1;rounded=0;entryX=0.617;entryY=-0.019;entryDx=0;entryDy=0;entryPerimeter=0;" edge="1" parent="1" source="IgAoc9PuT6BzsLdgYkdI-38">
          <mxGeometry width="50" height="50" relative="1" as="geometry">
            <mxPoint x="-882.12" y="325.95" as="sourcePoint" />
            <mxPoint x="-836.63" y="360.00000000000006" as="targetPoint" />
          </mxGeometry>
        </mxCell>
        <mxCell id="IgAoc9PuT6BzsLdgYkdI-38" value="" style="verticalLabelPosition=bottom;verticalAlign=top;html=1;shape=mxgraph.flowchart.on-page_reference;fillColor=#FFFFFF;" vertex="1" parent="1">
          <mxGeometry x="-842" y="320.95" width="10" height="10" as="geometry" />
        </mxCell>
        <mxCell id="IgAoc9PuT6BzsLdgYkdI-39" value="&lt;span style=&quot;font-size: 18px;&quot;&gt;Fine&lt;/span&gt;" style="text;html=1;align=center;verticalAlign=middle;resizable=0;points=[];autosize=1;strokeColor=none;fillColor=none;" vertex="1" parent="1">
          <mxGeometry x="-865" y="289" width="60" height="40" as="geometry" />
        </mxCell>
        <mxCell id="IgAoc9PuT6BzsLdgYkdI-42" value="" style="verticalLabelPosition=bottom;verticalAlign=top;html=1;shape=mxgraph.flowchart.on-page_reference;fillColor=#FFFFFF;" vertex="1" parent="1">
          <mxGeometry x="-936" y="329" width="10" height="10" as="geometry" />
        </mxCell>
        <mxCell id="IgAoc9PuT6BzsLdgYkdI-44" value="" style="endArrow=none;html=1;rounded=0;entryX=1;entryY=0.5;entryDx=0;entryDy=0;entryPerimeter=0;" edge="1" parent="1" target="IgAoc9PuT6BzsLdgYkdI-6">
          <mxGeometry width="50" height="50" relative="1" as="geometry">
            <mxPoint x="-880" y="342" as="sourcePoint" />
            <mxPoint x="-829.63" y="389.00000000000006" as="targetPoint" />
          </mxGeometry>
        </mxCell>
        <mxCell id="IgAoc9PuT6BzsLdgYkdI-45" value="&lt;span style=&quot;font-size: 18px;&quot;&gt;Nome&lt;/span&gt;" style="text;html=1;align=center;verticalAlign=middle;resizable=0;points=[];autosize=1;strokeColor=none;fillColor=none;" vertex="1" parent="1">
          <mxGeometry x="-805" y="320.95" width="70" height="40" as="geometry" />
        </mxCell>
        <mxCell id="IgAoc9PuT6BzsLdgYkdI-50" value="" style="endArrow=none;html=1;rounded=0;entryX=1;entryY=0;entryDx=0;entryDy=0;" edge="1" parent="1" source="IgAoc9PuT6BzsLdgYkdI-51" target="VPmdxkoRCYv9EaFTGyUe-138">
          <mxGeometry width="50" height="50" relative="1" as="geometry">
            <mxPoint x="-850.12" y="345" as="sourcePoint" />
            <mxPoint x="-804.63" y="379.05000000000007" as="targetPoint" />
          </mxGeometry>
        </mxCell>
        <mxCell id="IgAoc9PuT6BzsLdgYkdI-51" value="" style="verticalLabelPosition=bottom;verticalAlign=top;html=1;shape=mxgraph.flowchart.on-page_reference;fillColor=#FFFFFF;" vertex="1" parent="1">
          <mxGeometry x="-810" y="340" width="10" height="10" as="geometry" />
        </mxCell>
        <mxCell id="IgAoc9PuT6BzsLdgYkdI-52" value="" style="endArrow=none;html=1;rounded=0;entryX=0.75;entryY=1;entryDx=0;entryDy=0;" edge="1" parent="1" source="IgAoc9PuT6BzsLdgYkdI-53" target="VPmdxkoRCYv9EaFTGyUe-1">
          <mxGeometry width="50" height="50" relative="1" as="geometry">
            <mxPoint x="-960.12" y="175" as="sourcePoint" />
            <mxPoint x="-914.63" y="209.05000000000007" as="targetPoint" />
          </mxGeometry>
        </mxCell>
        <mxCell id="IgAoc9PuT6BzsLdgYkdI-53" value="" style="verticalLabelPosition=bottom;verticalAlign=top;html=1;shape=mxgraph.flowchart.on-page_reference;fillColor=#FFFFFF;" vertex="1" parent="1">
          <mxGeometry x="-927.5" y="170" width="10" height="10" as="geometry" />
        </mxCell>
        <mxCell id="IgAoc9PuT6BzsLdgYkdI-54" value="&lt;font style=&quot;font-size: 18px;&quot;&gt;Tipologia&lt;/font&gt;" style="text;html=1;align=center;verticalAlign=middle;whiteSpace=wrap;rounded=0;" vertex="1" parent="1">
          <mxGeometry x="-945" y="190" width="45" height="10" as="geometry" />
        </mxCell>
      </root>
    </mxGraphModel>
  </diagram>
</mxfile>
